<svg version="1.2" xmlns="http://www.w3.org/2000/svg" viewBox="0 0 425 158" width="425" height="158"><style>tspan{white-space:pre}.a{font-size: 15px;fill: #72253d;font-weight: 600;font-family: "Raleway-SemiBold", "Raleway"}.b{font-size: 15px;fill: #b6b6b6;font-weight: 600;font-family: "Raleway-SemiBold", "Raleway"}.c{fill:#caa258}.d{fill:#fff}</style><text style="transform:matrix(1,0,0,1,-73.96,-103.13)"><tspan x="0" y="0" class="a">SU Corporate
</tspan></text><text style="transform:matrix(1,0,0,1,-73.96,-103.13)"><tspan x="0" y="0" class="b">Vertical
</tspan></text><path fill-rule="evenodd" class="c" d="m110.5 106.9c0 37.8-43.5 49.8-48.7 50-3.6-0.7-7.5-1.7-11-3l0.2-1.3c13.2-2 25-17.8 25-32.6 0-31.1-43.8-44.9-43.8-87.2 0-13 4.7-20.6 6.4-22.9h-15.1c-2.3 2.5-7.6 10-7.6 24.6 0 35.2 22.1 50.5 34.7 67.5 17 22.8 2.7 37.3-10.7 37.3-13.4 0-21.1-9.1-26.6-21.4-5.5-12.5-5.8-26-5.8-35.7v-72.3h-3.7v-8.2q0 0 0.1 0 0.1 0 0.1 0c0.1 0 0.6 0 0.6 0 3.3 0 18.1 0 73.5 0l0.4 0.7c-3.6 3.4-10 10.8-10 25.6 0 32.5 42 41.1 42 78.9zm-94-23.6c0 25.2 8.3 47.5 23.5 47.5 6.6 0 10.2-6.6 6.3-16.1-5.6-13.3-22.6-27.4-29.3-43.3-0.1 0-0.4 0.2-0.5 0.2 0 0 0 11.7 0 11.7zm57.7 61.9c9.9-3.5 26.1-17.7 26.1-36.9 0-32.8-41.7-43.4-41.7-79.3 0-9.8 2.8-16.5 4.3-19.1h-14.4c-1.7 2.3-6.6 9.8-6.6 21.6 0 39.3 44.7 52.7 44.7 88.3 0 12-6.9 20.5-12.7 25 0.1 0.2 0.2 0.3 0.3 0.4z"/><path class="c" d="m4.1 1.7q-0.1 0-0.2 0 0.1 0 0.1 0 0.1 0 0.1 0z"/><path fill-rule="evenodd" class="c" d="m119.9 1.7c0-0.3 0 8 0 8.2h-3.8v62.2l-1 0.3c-1.5-2.6-5.1-7.3-12.4-14.7-9.6-9.5-18.3-19.4-18.3-32.6 0-10.9 8.2-17.6 9.4-18.5 4.7-3.6 9.9-4.9 16.4-4.9zm-12.6 49v-40.5c-0.6 0-0.3 0-0.9 0-1.5 0-2.8 0-4.2 0.5-4.7 1.7-9.2 7.6-9.2 14.3 0 11.4 9.9 20.6 13.9 25.9 0.1 0 0.3-0.2 0.4-0.2z"/><path class="d" d="m144.1 40.1l3.1-0.2c0.1 0.3 0.2 0.8 0.3 1.1 0.9 3.1 3.6 5.8 7.2 5.8 3.3 0 6.8-2.1 6.8-6.2 0-4.4-4-6.5-9.2-8.6-4.8-2-8.9-5.2-8.9-10.7 0-6.2 5.5-9.7 11.9-9.7 2.8 0 6.1 0.6 8.9 1.8 0.3 0.1 0.7 0.2 1 0.3l-0.7 6.8-3.2-0.1c0-0.3-0.1-0.7-0.1-1-0.7-2.6-3.1-4.4-6.3-4.4-3.3 0-5.8 1.8-5.8 5.1 0 2.9 2 4.5 7 6.5 5.7 2.3 11.6 6.5 11.6 13.1 0 6.6-6.3 10.6-13.3 10.6-3.7 0-6.8-1.2-10-2.8 0 0-0.3-7.4-0.3-7.4z"/><path class="d" d="m185.6 47.6c-1.9 1.7-4 2.8-6.6 2.8-4.7 0-5.9-3.7-5.9-7.7v-16.3h-2.6v-3.8c2.8 0 3.8-2 3.9-4.4l0.2-3h4.5v7.4h6.3v1.4c0 1.6-1.3 2.4-2.8 2.4h-3.5v16.7c0 2 0.8 3.7 2.7 3.7 1.1 0 2.1-0.6 2.9-1l0.9 1.8z"/><path fill-rule="evenodd" class="d" d="m209.8 45.3c-2.2 3.3-6.1 5-10 5-8.7 0-13.4-7.1-13.4-15 0-7.2 5.7-13.3 13-13.3 4.6 0 9.5 2.3 10.6 6.6 0.2 0.8 0.4 1.7 0.4 2.6 0 4.9-4.2 6.7-9 6.7h-8.6c0.2 4.4 3.1 8.5 7.7 8.8 3.6 0 5.7-0.9 8.4-3.2l0.9 1.8zm-13.7-10.9c4.2 0 8.6 0 8.6-3.9 0-2.6-2-5-5-5-4.6 0-6.9 4.8-6.9 8.9h3.3z"/><path class="d" d="m215.4 13.5c0-1.1-1-1.2-1.8-1.2h-0.5v-2.4h4.3c3.3 0 4 1.7 4 4.6v30.3c0 1.3 0.4 1.7 1.4 2.2v2.7h-8.9v-2.7c1.1-0.5 1.5-0.9 1.5-2.2 0 0 0-31.3 0-31.3z"/><path class="d" d="m228.6 13.5c0-1.1-1-1.2-1.8-1.2h-0.5v-2.4h4.3c3.3 0 4 1.7 4 4.6v30.3c0 1.3 0.4 1.7 1.5 2.2v2.7h-8.9v-2.7c1-0.5 1.5-0.9 1.5-2.2 0 0 0-31.3-0.1-31.3z"/><path fill-rule="evenodd" class="d" d="m262.4 45.3c-2.2 3.3-6.1 5-10.1 5-8.6 0-13.3-7.1-13.3-15 0-7.2 5.6-13.3 13-13.3 4.6 0 9.4 2.3 10.6 6.6 0.2 0.8 0.4 1.7 0.4 2.6 0 4.9-4.2 6.7-9.1 6.7h-8.6c0.2 4.4 3.2 8.5 7.7 8.8 3.7 0 5.8-0.9 8.4-3.2l1 1.8zm-13.8-10.9c4.3 0 8.7 0 8.7-3.9 0-2.6-2-5-5-5-4.6 0-7 4.8-7 8.9 0 0 3.3 0 3.3 0z"/><path class="d" d="m266.8 49.7v-2.7c0.3 0 0.7-0.1 0.9-0.3 0.5-0.4 0.6-1.3 0.6-1.9v-18.9c0-0.7-0.5-1.1-1.1-1.2-0.3-0.1-0.6-0.1-0.9-0.1v-2.4h4c3 0 3.7 1.7 3.7 3.5 2-2.4 4.6-3.4 7.7-3.4 5.9 0 8.5 4 8.5 9.3v13.2c0 0.6 0.1 1.4 0.6 1.9 0.2 0.2 0.5 0.3 0.9 0.3v2.7h-9v-2.7c1.4 0 1.5-1.1 1.5-2.2v-13.4c0-2.7-1.3-5.5-4.4-5.5-2.7 0-4.9 2.1-5.7 4.6v14.3c0 0.4 0 0.9 0.2 1.4q0.1 0.2 0.3 0.5c0.3 0.2 0.6 0.3 1 0.3v2.7z"/><path fill-rule="evenodd" class="d" d="m293 9.9h4.3c3.4 0 4 1.6 4 4.4v10.2c1.5-1.7 4.1-2.5 6.5-2.5 7.8 0 11.9 7.3 11.9 14.3 0 7.8-4.6 14-13.5 14-5.9 0-10.7-2.8-10.7-9v-27.8c0-0.7-0.6-1-1.1-1.1-0.3-0.1-0.6-0.1-1-0.1h-0.4c0 0 0-2.4 0-2.4zm8.3 31.6c0 3.4 1.6 5.5 4.7 5.5 5.7 0 7.2-6.7 7.2-11.3 0-4.1-1.4-9.8-6.5-9.8-2 0-4.4 1.2-5.4 3.1z"/><path fill-rule="evenodd" class="d" d="m336 22c7.8 0 13.3 6.5 13.3 14.1 0 7.5-5.5 14.2-13.3 14.2-7.9 0-13.5-6.9-13.5-14.4 0-7.5 5.7-13.9 13.5-13.9zm-0.1 25c5.6 0 6.8-6.6 6.8-10.8 0-4.4-1.4-10.8-7-10.8-5.6 0-6.8 6.1-6.8 10.4 0 4.1 1.2 11.2 7 11.2z"/><path class="d" d="m352.3 42.5h3c0.8 3 3 4.9 6.2 4.9 2.4 0 4.6-1.2 4.6-3.5 0-1.6-1-2.5-2.3-3.3-0.8-0.5-1.8-0.9-2.7-1.3-4.1-1.8-9.4-4.1-9.4-9.4 0-4.7 4.1-7.9 10.2-7.9 2.5 0 5.7 0.5 7.9 1.4l0.3 0.1v6h-3.1c-0.8-2.7-2.8-4.2-5.6-4.2-2.8 0-4.3 1.6-4.3 3.1 0 2.1 3 3.8 6 5.1 0.6 0.4 1.3 0.6 1.9 1 3.6 1.6 6.9 3.3 6.9 7.9 0 6.9-7.6 7.9-10.8 7.9-3.2 0-5.8-0.8-8.5-2.1l-0.3-0.2v-5.5z"/><path class="d" d="m397.8 44.9v0.1c-2.4 3-5.9 5.3-9.9 5.3-8.5 0-13.4-6.2-13.4-14 0-7.8 5-14.3 13.4-14.3 3.3 0 5.6 0.5 8.3 1.7 0.3 0.2 0.7 0.3 1 0.5v5.3h-3c-0.2-0.4-0.3-0.8-0.5-1.1-0.9-2-2.7-3.3-5.2-3.3-5.6 0-7.5 6.4-7.5 11 0 4.6 2.1 10.6 8 10.6 2.7 0 5-1.3 6.6-3.3 0.4-0.3 0.6-0.7 0.8-1.1l1.4 2.7z"/><path class="d" d="m399.9 49.7v-2.7l0.3-0.1c0.5-0.2 1.2-0.7 1.2-2.1v-31.3c0-1-1.1-1.2-2-1.2h-0.5v-2.4h4.5c3.9 0 4.2 2.2 4.2 5.3 0 2.5 0 9.9 0 9.9 1.8-2.1 3.7-2.9 6.2-2.9 5.9 0 9.4 4.1 9.4 9v13.6c0 1.3 0.4 1.7 1.5 2.2v2.7h-9v-2.7c1-0.3 1.6-1.1 1.6-2.2v-13.4c0-3-1.8-5.4-4.4-5.6-2.7 0-4.7 1.5-5.6 3.9v15.1c0 0.9 0.3 1.5 1.1 1.9 0.1 0.1 0.4 0.2 0.6 0.3v2.7z"/><path class="d" d="m152.2 84.5q1.3 0 2.2-0.5 0.8-0.5 1.4-1.3 0.5-0.9 0.7-1.9 0.2-1.1 0.2-2.3v-9.4h3.6v9.4q0 1.9-0.5 3.6-0.4 1.7-1.4 2.9-1 1.3-2.5 2-1.5 0.7-3.7 0.7c-1.4 0-2.7-0.2-3.7-0.8q-1.6-0.7-2.5-2-1-1.2-1.4-2.9-0.5-1.7-0.5-3.5v-9.4h3.6v9.4q0 1.2 0.3 2.3 0.2 1.1 0.7 1.9 0.5 0.8 1.4 1.3 0.8 0.5 2.1 0.5z"/><path class="d" d="m171.1 75.8v11.8h-3.6v-18.5h2.8l9.6 12.1v-12h3.6v18.4h-2.9z"/><path class="d" d="m190.9 87.6v-18.5h3.6v18.5z"/><path class="d" d="m203.8 69.1l5 14 4.9-14h3.8l-7.2 18.5h-3l-7.3-18.5z"/><path class="d" d="m235.8 84.4v3.2h-12.8v-18.5h12.6v3.2h-9v4.4h7.8v2.9h-7.8v4.8h9.2z"/><path fill-rule="evenodd" class="d" d="m242.2 87.6zm0-18.5h8.2q1.3 0 2.3 0.6 1.1 0.5 1.9 1.4 0.8 0.8 1.2 1.9 0.5 1.2 0.5 2.3 0 1.8-0.9 3.2-0.9 1.5-2.5 2.1l4.2 7h-4l-3.8-6.2h-3.5v6.2h-3.6zm3.6 9.1h4.5q0.5 0 0.9-0.2 0.5-0.3 0.8-0.7 0.3-0.4 0.5-0.9 0.1-0.5 0.1-1.2 0-0.6-0.2-1.2-0.2-0.5-0.5-0.9-0.4-0.4-0.8-0.6-0.5-0.3-1-0.3h-4.3c0 0 0 6 0 6z"/><path class="d" d="m274.1 74q-0.2-0.2-0.7-0.5-0.5-0.3-1.2-0.6-0.7-0.3-1.5-0.6-0.8-0.2-1.6-0.2-1.5 0-2.2 0.6-0.7 0.5-0.7 1.5 0 0.6 0.2 1 0.3 0.3 0.8 0.6 0.5 0.3 1.3 0.5 0.8 0.3 1.9 0.5 1.3 0.4 2.4 0.8 1.1 0.4 1.9 1.1 0.8 0.6 1.2 1.5 0.4 0.8 0.4 2.1 0 1.5-0.6 2.5-0.5 1.1-1.5 1.7-0.9 0.7-2.2 1-1.2 0.3-2.6 0.3-2 0-4.1-0.6-2-0.6-3.6-1.8l1.6-3.1q0.2 0.2 0.8 0.6 0.6 0.4 1.5 0.8 0.8 0.3 1.8 0.6 1 0.3 2.1 0.3 3 0 3-1.9 0-0.6-0.4-1-0.3-0.5-0.9-0.8-0.7-0.3-1.6-0.5-0.8-0.3-1.9-0.6-1.4-0.4-2.3-0.8-1-0.4-1.7-1-0.6-0.6-0.9-1.4-0.4-0.7-0.4-1.8 0-1.4 0.6-2.5 0.5-1.1 1.4-1.8 0.9-0.7 2.2-1.1 1.2-0.4 2.6-0.4 1.9 0 3.6 0.6 1.6 0.6 2.8 1.5l-1.6 2.9z"/><path class="d" d="m282.6 87.6v-18.5h3.6v18.5z"/><path class="d" d="m307.4 72.3h-5.9v15.3h-3.6v-15.3h-5.9v-3.2h15.4v3.2z"/><path class="d" d="m315.3 69.1l4.6 8.9 4.6-8.9h3.9l-6.8 12v6.5h-3.5v-6.5l-6.7-12z"/><path class="d" d="m144.2 115.8v-18.5h3.6v18.5z"/><path class="d" d="m157.3 97.3l4.5 8.9 4.6-8.9h3.9l-6.7 12v6.5h-3.6v-6.5l-6.7-12z"/><path class="d" d="m183.7 112.7q1.3 0 2.1-0.5 0.9-0.5 1.4-1.4 0.6-0.8 0.8-1.9 0.2-1.1 0.2-2.2v-9.4h3.6v9.4q0 1.9-0.5 3.6-0.5 1.6-1.4 2.9-1 1.2-2.5 1.9-1.6 0.8-3.7 0.8c-1.4 0-2.7-0.3-3.8-0.8q-1.5-0.8-2.5-2-0.9-1.3-1.4-2.9-0.4-1.7-0.4-3.5v-9.4h3.6v9.4q0 1.2 0.2 2.2 0.2 1.1 0.8 2 0.5 0.8 1.4 1.3 0.8 0.5 2.1 0.5z"/><path class="d" d="m202.5 103.9v11.8h-3.5v-18.4h2.7l9.7 12.1v-12.1h3.5v18.4h-2.9z"/><path class="d" d="m222.4 115.8v-18.5h3.5v18.5z"/><path class="d" d="m235.3 97.3l4.9 14 5-14h3.7l-7.2 18.5h-3l-7.2-18.5z"/><path class="d" d="m267.3 112.6v3.2h-12.8v-18.5h12.6v3.1h-9v4.5h7.7v2.9h-7.7v4.8h9.2z"/><path class="d" d="m284.3 102.1q-0.2-0.2-0.7-0.5-0.5-0.3-1.2-0.6-0.6-0.3-1.5-0.5-0.8-0.2-1.6-0.2-1.5 0-2.2 0.6-0.7 0.5-0.7 1.5 0 0.6 0.2 0.9 0.3 0.4 0.8 0.7 0.6 0.3 1.3 0.5 0.8 0.2 1.9 0.5 1.3 0.4 2.4 0.8 1.1 0.4 1.9 1 0.8 0.6 1.2 1.5 0.4 0.9 0.4 2.2 0 1.4-0.6 2.5-0.5 1.1-1.5 1.7-0.9 0.6-2.2 0.9-1.2 0.3-2.5 0.3-2.1 0-4.2-0.6-2-0.6-3.6-1.7l1.6-3.1q0.2 0.2 0.8 0.6 0.7 0.4 1.5 0.7 0.8 0.4 1.8 0.7 1.1 0.2 2.1 0.2 3 0 3-1.9 0-0.6-0.4-1-0.3-0.4-0.9-0.7-0.6-0.3-1.5-0.6-0.9-0.2-2-0.6-1.3-0.3-2.3-0.7-1-0.5-1.6-1.1-0.7-0.5-1-1.3-0.3-0.8-0.3-1.8 0-1.4 0.5-2.5 0.5-1.1 1.4-1.9 0.9-0.7 2.2-1.1 1.2-0.3 2.6-0.3 2 0 3.6 0.6 1.6 0.6 2.8 1.4l-1.5 2.9z"/><path class="d" d="m292.8 115.8v-18.5h3.6v18.5z"/><path class="d" d="m317.6 100.4h-5.9v15.3h-3.6v-15.3h-5.9v-3.1h15.4v3.1z"/><path class="d" d="m339 97.3v18.5h-3.6v-7.9h-8.4v7.9h-3.6v-18.5h3.6v7.5h8.4v-7.5z"/><path class="d" d="m346.4 115.8v-18.5h3.6v18.5z"/><path class="d" d="m152.2 140.9q1.3 0 2.2-0.6 0.9-0.5 1.4-1.3 0.5-0.8 0.7-1.9 0.3-1.1 0.3-2.2v-9.4h3.5v9.4q0 1.9-0.4 3.5-0.5 1.7-1.5 2.9-1 1.3-2.5 2-1.5 0.8-3.7 0.7c-1.4 0-2.7-0.2-3.7-0.7q-1.6-0.8-2.5-2.1-1-1.2-1.4-2.9-0.5-1.6-0.4-3.4v-9.4h3.5v9.4q0 1.1 0.3 2.2 0.2 1.1 0.7 1.9 0.5 0.9 1.4 1.4 0.9 0.5 2.1 0.5z"/><path class="d" d="m171.1 132.1v11.8h-3.6v-18.4h2.8l9.6 12.1v-12.1h3.6v18.4h-2.9z"/><path class="d" d="m190.9 143.9v-18.5h3.6v18.5z"/><path class="d" d="m203.8 125.4l5 14 4.9-14h3.8l-7.2 18.5h-3l-7.3-18.5z"/><path class="d" d="m235.8 140.8v3.1h-12.8v-18.5h12.6v3.2h-9v4.4h7.8v3h-7.8v4.8h9.2z"/><path fill-rule="evenodd" class="d" d="m242.2 143.9zm0-18.4h8.2q1.3 0 2.3 0.5 1.1 0.5 1.9 1.4 0.8 0.9 1.2 2 0.5 1.1 0.5 2.2 0 1.8-0.9 3.2-0.9 1.5-2.5 2.2l4.2 6.9h-4l-3.8-6.2h-3.5v6.2h-3.6zm3.6 9.1h4.5q0.5 0 0.9-0.2 0.5-0.2 0.8-0.6 0.3-0.4 0.5-1 0.1-0.5 0.1-1.2 0-0.6-0.2-1.2-0.2-0.5-0.5-0.9-0.4-0.4-0.8-0.6-0.5-0.3-1-0.2h-4.3c0 0 0 5.9 0 5.9z"/><path class="d" d="m274.1 130.3q-0.2-0.2-0.7-0.5-0.5-0.3-1.2-0.6-0.7-0.3-1.5-0.5-0.8-0.2-1.6-0.2-1.5 0-2.2 0.5-0.7 0.6-0.7 1.5 0 0.6 0.2 1 0.3 0.4 0.8 0.6 0.5 0.3 1.3 0.6 0.8 0.2 1.9 0.5 1.3 0.3 2.4 0.7 1.1 0.5 1.9 1.1 0.8 0.6 1.2 1.5 0.4 0.9 0.4 2.1 0 1.5-0.6 2.6-0.5 1-1.5 1.7-0.9 0.6-2.2 0.9-1.2 0.3-2.6 0.3-2 0-4.1-0.6-2-0.6-3.6-1.8l1.6-3.1q0.2 0.3 0.8 0.6 0.6 0.4 1.5 0.8 0.8 0.4 1.8 0.6 1 0.3 2.1 0.3 3 0 3-1.9 0-0.6-0.4-1-0.3-0.4-0.9-0.8-0.7-0.3-1.6-0.5-0.8-0.3-1.9-0.6-1.4-0.4-2.3-0.8-1-0.4-1.7-1-0.6-0.6-0.9-1.3-0.3-0.8-0.3-1.9 0-1.4 0.5-2.5 0.5-1.1 1.4-1.8 0.9-0.7 2.2-1.1 1.2-0.4 2.6-0.4 1.9 0 3.6 0.6 1.6 0.7 2.8 1.5l-1.6 2.9z"/><path class="d" d="m282.6 143.9v-18.5h3.6v18.5z"/><path class="d" d="m307.4 128.6h-5.9v15.3h-3.6v-15.3h-5.9v-3.2h15.4v3.2z"/><path class="d" d="m326 140.8v3.1h-12.8v-18.5h12.6v3.2h-9v4.4h7.8v3h-7.8v4.8h9.2z"/><path class="d" d="m332.4 143.9v-18.5h3.6v18.5z"/><path class="d" d="m357.2 128.6h-5.9v15.3h-3.5v-15.3h-5.9v-3.2h15.3v3.2z"/></svg>