<?xml version="1.0" encoding="utf-8"?>
<!-- Generator: Adobe Illustrator 27.8.1, SVG Export Plug-In . SVG Version: 6.00 Build 0)  -->
<svg version="1.1" id="Layer_1" xmlns="http://www.w3.org/2000/svg" xmlns:xlink="http://www.w3.org/1999/xlink" x="0px" y="0px"
	 viewBox="0 0 841.9 595.3" style="enable-background:new 0 0 841.9 595.3;" xml:space="preserve">
<style type="text/css">
	.st0{clip-path:url(#SVGID_00000099620399527205129040000018230169629526407557_);fill:#5A1C3C;}
	.st1{clip-path:url(#SVGID_00000021799175112965177700000007048907965199377836_);fill:#5A1C3C;}
	.st2{clip-path:url(#SVGID_00000044882993135581565400000015769973443731296644_);fill:#5A1C3C;}
	.st3{clip-path:url(#SVGID_00000082338228591942644310000010020147941191200425_);fill:#5A1C3C;}
	.st4{fill:none;stroke:#FFFFFF;stroke-width:2.2458;}
	.st5{fill:none;stroke:#FFFFFF;stroke-width:1.3683;}
	.st6{clip-path:url(#SVGID_00000055680135955562268770000002331219581215398050_);}
	.st7{fill:#5A1C3C;}
	.st8{clip-path:url(#SVGID_00000162354378120198488020000012122114455577353610_);fill:#5A1C3C;}
	.st9{clip-path:url(#SVGID_00000137846167696320943820000005821797625672876694_);fill:#5A1C3C;}
	.st10{clip-path:url(#SVGID_00000160156337489885852170000011759015947617853367_);}
	.st11{clip-path:url(#SVGID_00000096042644399973578110000002372323317690341031_);fill:#5A1C3C;}
	.st12{clip-path:url(#SVGID_00000027594949959858910240000003095211350526762883_);}
	.st13{clip-path:url(#SVGID_00000152953540049546239610000003923363933160974776_);}
	.st14{fill:#AB1D40;}
	.st15{fill:#DE4827;}
	.st16{fill:#82CCAE;}
</style>
<g>
	<defs>
		<rect id="SVGID_00000166643067128494161610000002210204343790219179_" x="0.6" y="341.7" width="841.3" height="253.5"/>
	</defs>
	<clipPath id="SVGID_00000063601814007479316850000013095463430944240797_">
		<use xlink:href="#SVGID_00000166643067128494161610000002210204343790219179_"  style="overflow:visible;"/>
	</clipPath>
	<path style="clip-path:url(#SVGID_00000063601814007479316850000013095463430944240797_);fill:#5A1C3C;" d="M841.9,595.3V350.7
		c0,81.2-65.8,147-147,147H1.6v97.5H841.9z"/>
</g>
<g>
	<defs>
		<rect id="SVGID_00000150804789754669201560000016850985189002416522_" x="692.3" width="149.6" height="297.3"/>
	</defs>
	<clipPath id="SVGID_00000168823395425813862420000009793939145207772601_">
		<use xlink:href="#SVGID_00000150804789754669201560000016850985189002416522_"  style="overflow:visible;"/>
	</clipPath>
	<g style="clip-path:url(#SVGID_00000168823395425813862420000009793939145207772601_);">
		<path class="st7" d="M845.5,227.7c-1,0-2-0.5-2.6-1.3c-15.2-21.4-32.2-39.3-47.3-55.1l-2.9-3c-37.9-40-61.1-66.4-61.1-104.4
			c0-12.9,1.7-24.5,5.2-34.4c4.6-13.4,12.9-25.3,23.8-34.2c1.4-1.1,3.4-0.9,4.5,0.5c1.1,1.4,0.9,3.4-0.5,4.5
			c-10,8.2-17.6,19-21.8,31.3c-3.2,9.3-4.8,20.1-4.8,32.3c0,33.7,19,57.4,59.4,100l2.9,3c15.2,16,32.3,34,47.8,55.8
			c1,1.4,0.7,3.4-0.7,4.5C846.7,227.5,846.1,227.7,845.5,227.7z"/>
	</g>
	<g style="clip-path:url(#SVGID_00000168823395425813862420000009793939145207772601_);">
		<path class="st7" d="M846.4,258.4c-1.1,0-2.2-0.6-2.8-1.6c-17.1-30-40-54.2-60.2-75.5l-2.1-2.2c-40.7-43-65.5-72.1-65.5-115.3
			c0-11.2,1.2-21.7,3.5-31.1c3.5-13.9,9.6-26.6,18.2-37.8c8.1-10.5,18.1-19.2,29.5-25.8c1.5-0.9,3.5-0.3,4.4,1.2
			c0.9,1.5,0.3,3.5-1.2,4.4c-10.7,6.1-20,14.3-27.6,24.1c-8.1,10.5-13.9,22.5-17.1,35.5c-2.2,8.9-3.4,18.9-3.4,29.6
			c0,41.6,24.2,69.2,63.7,110.9l2.1,2.2c20.5,21.6,43.7,46,61.2,76.7c0.9,1.5,0.3,3.5-1.2,4.4C847.5,258.3,846.9,258.4,846.4,258.4z
			"/>
	</g>
	<g style="clip-path:url(#SVGID_00000168823395425813862420000009793939145207772601_);">
		<path class="st7" d="M845.4,293c-1.3,0-2.5-0.8-3-2.1c-15.5-40.8-45.2-72.1-71.4-99.7l-1.2-1.3C733.9,152.1,700,116.4,700,63.8
			c0-11.1,1.1-21.6,3.2-31.3c2.8-12.9,7.6-25.1,14.2-36.4c0.9-1.5,2.9-2,4.4-1.1c1.5,0.9,2,2.9,1.1,4.4
			c-6.3,10.7-10.8,22.3-13.4,34.5c-2,9.2-3,19.3-3,29.9c0,50,31.5,83.2,68.1,121.7l1.2,1.3c26.6,28.1,56.8,59.8,72.7,101.8
			c0.6,1.7-0.2,3.5-1.9,4.1C846.1,292.9,845.7,293,845.4,293z"/>
	</g>
</g>
</svg>
