<?xml version="1.0" encoding="utf-8"?>
<!-- Generator: Adobe Illustrator 27.8.1, SVG Export Plug-In . SVG Version: 6.00 Build 0)  -->
<svg version="1.1" id="Layer_1" xmlns="http://www.w3.org/2000/svg" xmlns:xlink="http://www.w3.org/1999/xlink" x="0px" y="0px"
	 viewBox="0 0 595.3 595.3" style="enable-background:new 0 0 595.3 595.3;" xml:space="preserve">
<style type="text/css">
	.st0{clip-path:url(#SVGID_00000121984243512446961380000013460145965320052134_);fill:#5A1C3C;}
	.st1{clip-path:url(#SVGID_00000106861837997381770060000002753284719161756557_);fill:#5A1C3C;}
	.st2{clip-path:url(#SVGID_00000142870360312313016800000015748262240028716182_);fill:#5A1C3C;}
	.st3{clip-path:url(#SVGID_00000015338931711579972460000000617410859400192897_);fill:#5A1C3C;}
	.st4{fill:none;stroke:#FFFFFF;stroke-width:2.2458;}
	.st5{fill:none;stroke:#FFFFFF;stroke-width:1.3683;}
	.st6{clip-path:url(#SVGID_00000157310205675570446080000012543155315248577944_);}
	.st7{fill:#5A1C3C;}
	.st8{clip-path:url(#SVGID_00000013189226577187388310000008128013483427996039_);fill:#5A1C3C;}
	.st9{clip-path:url(#SVGID_00000106112655945916265300000011609615943107513525_);fill:#5A1C3C;}
	.st10{clip-path:url(#SVGID_00000033335521130213870690000010808705743531461557_);}
	.st11{clip-path:url(#SVGID_00000044898250066231671720000003123450563211982248_);fill:#5A1C3C;}
	.st12{clip-path:url(#SVGID_00000147210262284191910010000004850188740802752659_);}
	.st13{clip-path:url(#SVGID_00000147927393697229503940000007943251677350801057_);}
	.st14{fill:#AB1D40;}
	.st15{fill:#DE4827;}
	.st16{fill:#82CCAE;}
</style>
<g>
	<defs>
		<rect id="SVGID_00000148646737338438204400000012727441795477789608_" x="418.8" width="176.5" height="350.8"/>
	</defs>
	<clipPath id="SVGID_00000117668479777612675910000004232904857183651256_">
		<use xlink:href="#SVGID_00000148646737338438204400000012727441795477789608_"  style="overflow:visible;"/>
	</clipPath>
	<g style="clip-path:url(#SVGID_00000117668479777612675910000004232904857183651256_);">
		<path class="st7" d="M599.5,268.6c-1.2,0-2.3-0.6-3.1-1.6c-18-25.2-38-46.4-55.8-65l-3.4-3.6c-44.7-47.2-72.1-78.3-72.1-123.2
			c0-15.2,2.1-28.9,6.1-40.6c5.5-15.8,15.2-29.8,28.1-40.4c1.6-1.3,4-1.1,5.3,0.5c1.3,1.6,1.1,4-0.5,5.3
			c-11.8,9.7-20.8,22.5-25.8,37c-3.8,10.9-5.7,23.7-5.7,38.1c0,39.7,22.4,67.8,70.1,118l3.4,3.5c17.9,18.8,38.1,40.2,56.4,65.8
			c1.2,1.7,0.8,4.1-0.9,5.3C601,268.4,600.2,268.6,599.5,268.6z"/>
	</g>
	<g style="clip-path:url(#SVGID_00000117668479777612675910000004232904857183651256_);">
		<path class="st7" d="M600.6,304.9c-1.3,0-2.6-0.7-3.3-1.9c-20.2-35.4-47.2-63.9-71.1-89.1l-2.5-2.6c-48.1-50.7-77.3-85.1-77.3-136
			c0-13.2,1.4-25.6,4.2-36.7c4.1-16.4,11.3-31.4,21.5-44.6c9.6-12.4,21.3-22.7,34.8-30.4c1.8-1,4.1-0.4,5.2,1.4
			c1,1.8,0.4,4.1-1.4,5.2c-12.7,7.2-23.6,16.8-32.6,28.5C468.6,11,461.8,25,458,40.4c-2.6,10.6-4,22.3-4,34.9
			c0,49,28.6,81.7,75.2,130.8l2.5,2.6c24.2,25.5,51.5,54.3,72.2,90.5c1,1.8,0.4,4.1-1.4,5.1C601.9,304.8,601.2,304.9,600.6,304.9z"
			/>
	</g>
	<g style="clip-path:url(#SVGID_00000117668479777612675910000004232904857183651256_);">
		<path class="st7" d="M599.4,345.7c-1.5,0-3-0.9-3.5-2.4c-18.3-48.1-53.3-85.1-84.2-117.6l-1.4-1.5
			c-42.4-44.7-82.4-86.9-82.4-148.9c0-13.1,1.3-25.5,3.7-36.9c3.3-15.2,8.9-29.6,16.7-42.9c1.1-1.8,3.4-2.4,5.2-1.3
			c1.8,1.1,2.4,3.4,1.3,5.2C447.4,11.9,442,25.6,438.9,40c-2.4,10.9-3.6,22.8-3.6,35.3c0,59,37.2,98.2,80.3,143.7l1.4,1.5
			c31.4,33.1,67,70.6,85.8,120.2c0.7,1.9-0.2,4.1-2.2,4.9C600.3,345.6,599.8,345.7,599.4,345.7z"/>
	</g>
</g>
<g>
	<defs>
		<rect id="SVGID_00000100358113652473236260000001961914807753571990_" x="0" y="347.7" width="595.3" height="247.5"/>
	</defs>
	<clipPath id="SVGID_00000173161823193054257460000002009002606795733150_">
		<use xlink:href="#SVGID_00000100358113652473236260000001961914807753571990_"  style="overflow:visible;"/>
	</clipPath>
	<path style="clip-path:url(#SVGID_00000173161823193054257460000002009002606795733150_);fill:#5A1C3C;" d="M595.3,602.3V347.7
		c0,81.2-65.8,147-147,147H0v107.5H595.3z"/>
</g>
</svg>
