<?xml version="1.0" encoding="utf-8"?>
<!-- Generator: Adobe Illustrator 27.8.1, SVG Export Plug-In . SVG Version: 6.00 Build 0)  -->
<svg version="1.1" id="Layer_1" xmlns="http://www.w3.org/2000/svg" xmlns:xlink="http://www.w3.org/1999/xlink" x="0px" y="0px"
	 viewBox="0 0 595.3 841.9" style="enable-background:new 0 0 595.3 841.9;" xml:space="preserve">
<style type="text/css">
	.st0{clip-path:url(#SVGID_00000131365673109085528940000010905229751374371483_);fill:#5A1C3C;}
	.st1{clip-path:url(#SVGID_00000070804609624709571170000016624749029899330180_);fill:#5A1C3C;}
	.st2{clip-path:url(#SVGID_00000071554079181060579580000003089822650808742073_);fill:#5A1C3C;}
	.st3{clip-path:url(#SVGID_00000018935484418234091730000013186127318570580128_);fill:#5A1C3C;}
	.st4{fill:none;stroke:#FFFFFF;stroke-width:2.2458;}
	.st5{fill:none;stroke:#FFFFFF;stroke-width:1.3683;}
	.st6{clip-path:url(#SVGID_00000124862526107737895750000016757957179792061095_);}
	.st7{fill:#5A1C3C;}
	.st8{clip-path:url(#SVGID_00000137828646403018613360000000821474584352656567_);fill:#5A1C3C;}
	.st9{clip-path:url(#SVGID_00000013163985790487895600000014386649687630638759_);fill:#5A1C3C;}
	.st10{clip-path:url(#SVGID_00000161620810538759000960000013377657636160413090_);}
	.st11{clip-path:url(#SVGID_00000168817151650349439930000008178790824660815006_);fill:#5A1C3C;}
	.st12{clip-path:url(#SVGID_00000104678533299829713850000007712024769416784262_);}
	.st13{clip-path:url(#SVGID_00000024685396306774625160000004965152589395616446_);}
	.st14{fill:#AB1D40;}
	.st15{fill:#DE4827;}
	.st16{fill:#82CCAE;}
</style>
<g>
	<defs>
		<rect id="SVGID_00000049939799223152755870000001638568077527000465_" x="384.5" width="210.8" height="418.9"/>
	</defs>
	<clipPath id="SVGID_00000030470804838112131730000016573231933760218504_">
		<use xlink:href="#SVGID_00000049939799223152755870000001638568077527000465_"  style="overflow:visible;"/>
	</clipPath>
	<g style="clip-path:url(#SVGID_00000030470804838112131730000016573231933760218504_);">
		<path class="st7" d="M600.3,320.8c-1.4,0-2.8-0.7-3.7-1.9c-21.5-30.1-45.4-55.4-66.6-77.6l-4-4.2c-53.4-56.3-86.1-93.5-86.1-147.1
			c0-18.2,2.5-34.5,7.3-48.5c6.5-18.9,18.2-35.6,33.6-48.2c1.9-1.6,4.8-1.3,6.3,0.6c1.6,1.9,1.3,4.8-0.6,6.3
			c-14.1,11.5-24.8,26.8-30.8,44.1c-4.5,13-6.8,28.4-6.8,45.5c0,47.5,26.8,80.9,83.7,140.9l4,4.2c21.3,22.5,45.5,48,67.4,78.6
			c1.4,2,1,4.8-1.1,6.3C602.1,320.5,601.2,320.8,600.3,320.8z"/>
	</g>
	<g style="clip-path:url(#SVGID_00000030470804838112131730000016573231933760218504_);">
		<path class="st7" d="M601.6,364.1c-1.6,0-3.1-0.8-3.9-2.3c-24.1-42.3-56.4-76.3-84.9-106.3l-3-3.2
			c-57.4-60.5-92.3-101.7-92.3-162.4c0-15.8,1.7-30.6,5-43.9c4.9-19.5,13.5-37.5,25.7-53.3c11.4-14.9,25.4-27.1,41.6-36.3
			c2.2-1.2,4.9-0.5,6.2,1.7c1.2,2.2,0.5,4.9-1.7,6.2c-15.1,8.6-28.2,20.1-38.9,34c-11.4,14.8-19.5,31.6-24.1,50
			c-3.1,12.6-4.7,26.6-4.7,41.7c0,58.6,34.1,97.5,89.8,156.2l3,3.1c28.8,30.4,61.5,64.8,86.2,108.1c1.2,2.2,0.5,4.9-1.7,6.1
			C603.2,363.9,602.4,364.1,601.6,364.1z"/>
	</g>
	<g style="clip-path:url(#SVGID_00000030470804838112131730000016573231933760218504_);">
		<path class="st7" d="M600.2,412.8c-1.8,0-3.5-1.1-4.2-2.9c-21.8-57.5-63.7-101.6-100.6-140.5l-1.7-1.8
			c-50.6-53.3-98.4-103.7-98.4-177.7c0-15.6,1.5-30.4,4.4-44c3.9-18.1,10.7-35.4,20-51.2c1.3-2.1,4-2.9,6.2-1.6
			c2.1,1.3,2.9,4,1.6,6.2c-8.8,15-15.2,31.4-19,48.6c-2.8,13-4.2,27.2-4.2,42.1c0,70.4,44.4,117.3,95.9,171.5l1.7,1.8
			c37.5,39.5,80,84.3,102.5,143.5c0.9,2.3-0.3,4.9-2.6,5.8C601.2,412.7,600.7,412.8,600.2,412.8z"/>
	</g>
</g>
<g>
	<defs>
		<rect id="SVGID_00000038414621779443948320000002925300751670912393_" x="0" y="588.3" width="595.3" height="253.5"/>
	</defs>
	<clipPath id="SVGID_00000111164142664977164620000018169641751158512032_">
		<use xlink:href="#SVGID_00000038414621779443948320000002925300751670912393_"  style="overflow:visible;"/>
	</clipPath>
	<path style="clip-path:url(#SVGID_00000111164142664977164620000018169641751158512032_);fill:#5A1C3C;" d="M595.3,842.9V588.3
		c0,81.2-65.8,147-147,147H0v107.5H595.3z"/>
</g>
</svg>
