<?xml version="1.0" encoding="utf-8"?>
<!-- Generator: Adobe Illustrator 27.8.1, SVG Export Plug-In . SVG Version: 6.00 Build 0)  -->
<svg version="1.1" id="Layer_1" xmlns="http://www.w3.org/2000/svg" xmlns:xlink="http://www.w3.org/1999/xlink" x="0px" y="0px"
	 viewBox="0 0 280.6 595.3" style="enable-background:new 0 0 280.6 595.3;" xml:space="preserve">
<style type="text/css">
	.st0{clip-path:url(#SVGID_00000166642827865511681810000007033628112518742973_);fill:#5A1C3C;}
	.st1{clip-path:url(#SVGID_00000088853002767882509590000005758526540254452641_);fill:#5A1C3C;}
	.st2{clip-path:url(#SVGID_00000158006492152375514030000014861400999921243575_);fill:#5A1C3C;}
	.st3{clip-path:url(#SVGID_00000049920606206126555660000016810521565478802576_);fill:#5A1C3C;}
	.st4{fill:none;stroke:#FFFFFF;stroke-width:2.2458;}
	.st5{fill:none;stroke:#FFFFFF;stroke-width:1.3683;}
	.st6{clip-path:url(#SVGID_00000011747622073903987030000017973182956482625920_);}
	.st7{fill:#5A1C3C;}
	.st8{clip-path:url(#SVGID_00000131350300079418910920000005303742588549681849_);fill:#5A1C3C;}
	.st9{clip-path:url(#SVGID_00000049908942962272182930000013200554859237597064_);fill:#5A1C3C;}
	.st10{clip-path:url(#SVGID_00000163762071036168823120000007184446572971339920_);}
	.st11{clip-path:url(#SVGID_00000176035671958074397060000013125344761492122037_);fill:#5A1C3C;}
	.st12{clip-path:url(#SVGID_00000026847265548896925670000001842350632360114602_);}
	.st13{clip-path:url(#SVGID_00000059283990626497589300000006549256075375080374_);}
	.st14{fill:#AB1D40;}
	.st15{fill:#DE4827;}
	.st16{fill:#82CCAE;}
</style>
<g>
	<defs>
		<rect id="SVGID_1_" x="0" y="428.7" width="280.6" height="166.6"/>
	</defs>
	<clipPath id="SVGID_00000064347914355969467380000014960286419218368647_">
		<use xlink:href="#SVGID_1_"  style="overflow:visible;"/>
	</clipPath>
	<path style="clip-path:url(#SVGID_00000064347914355969467380000014960286419218368647_);fill:#5A1C3C;" d="M280.6,595.3V428.7
		c0,37.6-30.5,68-68,68H0v98.6H280.6z"/>
</g>
<g>
	<defs>
		<rect id="SVGID_00000145742029888028202320000007866755358645309616_" x="199.3" width="81.3" height="149.4"/>
	</defs>
	<clipPath id="SVGID_00000148652761207278086510000016086621144358052521_">
		<use xlink:href="#SVGID_00000145742029888028202320000007866755358645309616_"  style="overflow:visible;"/>
	</clipPath>
	<path style="clip-path:url(#SVGID_00000148652761207278086510000016086621144358052521_);fill:#5A1C3C;" d="M292.6,155.7
		c-1.8-12.3-5.8-23.2-10.9-32.9c0.5,0.1,0.9,0.2,1.4,0.2c0.8,0,1.7-0.2,2.5-0.7c2.4-1.4,3.2-4.4,1.9-6.8c-1.8-3.2-3.8-6.3-5.8-9.3
		c0.3,0.1,0.6,0.1,0.9,0.1c1,0,2-0.3,2.9-0.9c2.3-1.6,2.8-4.7,1.2-7c-8.6-12-18-21.9-26.3-30.7l-1.6-1.6
		c-21.8-23-31.4-34.9-31.4-52.1c0-6.3,0.8-11.8,2.4-16.5c0.9-2.6-0.5-5.5-3.1-6.4c-2.6-0.9-5.5,0.5-6.4,3.1
		c-0.1,0.3-0.2,0.6-0.3,0.9c-0.6-1.2-1.8-2.2-3.2-2.5c-2.3-0.6-4.5,0.5-5.6,2.4c-0.7-1.3-1.9-2.3-3.4-2.6c-2.7-0.6-5.4,1.1-6,3.8
		c-1.2,5.5-1.8,11.4-1.8,17.7c0,29.9,18.9,49.8,38.9,70.8l0.6,0.7c18,19,38.4,40.4,43,71.7c0.4,2.5,2.5,4.3,5,4.3
		c0.2,0,0.5,0,0.7-0.1C291.1,161,293,158.5,292.6,155.7z"/>
</g>
</svg>
