<?xml version="1.0" encoding="utf-8"?>
<!-- Generator: Adobe Illustrator 27.8.1, SVG Export Plug-In . SVG Version: 6.00 Build 0)  -->
<svg version="1.1" id="Layer_1" xmlns="http://www.w3.org/2000/svg" xmlns:xlink="http://www.w3.org/1999/xlink" x="0px" y="0px"
	 viewBox="0 0 595.3 841.9" style="enable-background:new 0 0 595.3 841.9;" xml:space="preserve">
<style type="text/css">
	.st0{clip-path:url(#SVGID_00000164508824703061066680000000199864792005943183_);}
	.st1{fill:#A60A3D;}
	.st2{clip-path:url(#SVGID_00000045606449347941184020000001514365881472510387_);}
	.st3{fill:#DC4405;}
	.st4{clip-path:url(#SVGID_00000115513047432962320790000004782706990152825758_);}
	.st5{fill:#82CCAE;}
</style>
<g>
	<g>
		<defs>
			<rect id="SVGID_1_" x="180.7" y="1.7" width="414.5" height="823.9"/>
		</defs>
		<clipPath id="SVGID_00000082364428660960257060000003612108305485812139_">
			<use xlink:href="#SVGID_1_"  style="overflow:visible;"/>
		</clipPath>
		<g style="clip-path:url(#SVGID_00000082364428660960257060000003612108305485812139_);">
			<path class="st1" d="M605,632.7c-2.8,0-5.6-1.3-7.4-3.8c-42.2-59.3-89.4-108.9-130.9-152.7l-7.9-8.3
				c-105.1-110.8-169.5-184-169.5-289.4c0-35.8,4.8-67.9,14.4-95.4c12.9-37.3,35.8-70.1,66.2-94.9c3.9-3.2,9.6-2.6,12.8,1.3
				s2.6,9.6-1.3,12.8C353.5,25,332.6,55,320.8,89.1c-8.9,25.6-13.4,55.7-13.4,89.4c0,93.3,52.7,159,164.5,276.9l7.9,8.3
				c42,44.2,89.6,94.3,132.6,154.7c2.9,4.1,2,9.8-2.1,12.7C608.7,632.2,606.8,632.7,605,632.7z"/>
		</g>
	</g>
	<g>
		<defs>
			<rect id="SVGID_00000080173226834938218540000007399463353794227344_" x="180.7" y="1.7" width="414.5" height="823.9"/>
		</defs>
		<clipPath id="SVGID_00000009565336016004543630000000721133691378575783_">
			<use xlink:href="#SVGID_00000080173226834938218540000007399463353794227344_"  style="overflow:visible;"/>
		</clipPath>
		<g style="clip-path:url(#SVGID_00000009565336016004543630000000721133691378575783_);">
			<path class="st3" d="M607.6,717.9c-3.2,0-6.2-1.6-7.9-4.6c-47.4-83.2-110.9-150.1-166.9-209.1l-5.9-6.2
				C314,379,245.5,298.1,245.5,178.5c0-31.1,3.3-60.1,9.8-86.3c9.6-38.5,26.6-73.7,50.6-104.9C328.4-41.9,356-66,387.8-84.2
				c4.3-2.5,9.9-1,12.4,3.4s1,9.9-3.4,12.4c-29.7,17-55.4,39.5-76.5,66.8c-22.5,29.2-38.4,62.2-47.4,98.2
				c-6.2,24.7-9.3,52.3-9.3,81.9c0,115.1,67.1,191.7,176.5,307l5.9,6.2c56.7,59.8,121.1,127.5,169.5,212.6c2.5,4.4,1,9.9-3.4,12.4
				C610.7,717.5,609.2,717.9,607.6,717.9z"/>
		</g>
	</g>
	<g>
		<defs>
			<rect id="SVGID_00000034054605119495963680000003808716507509913269_" x="180.7" y="1.7" width="414.5" height="823.9"/>
		</defs>
		<clipPath id="SVGID_00000114031374160960017080000012176505110403842235_">
			<use xlink:href="#SVGID_00000034054605119495963680000003808716507509913269_"  style="overflow:visible;"/>
		</clipPath>
		<g style="clip-path:url(#SVGID_00000114031374160960017080000012176505110403842235_);">
			<path class="st5" d="M604.7,813.8c-3.7,0-7.1-2.2-8.5-5.9c-42.9-113-125.1-199.7-197.7-276.1l-3.3-3.5
				c-99.5-104.9-193.5-204-193.5-349.7c0-30.7,2.9-59.9,8.8-86.7c7.7-35.7,21-69.6,39.3-100.8c2.6-4.3,8.1-5.8,12.4-3.2
				c4.3,2.5,5.8,8.1,3.2,12.4C248,29.8,235.5,62,228.2,95.7c-5.5,25.5-8.4,53.4-8.4,82.8c0,138.4,87.4,230.5,188.5,337.2l3.3,3.5
				C485.4,597,569,685.1,613.2,801.4c1.8,4.7-0.6,9.9-5.3,11.7C606.9,813.6,605.8,813.8,604.7,813.8z"/>
		</g>
	</g>
</g>
</svg>
