<?xml version="1.0" encoding="utf-8"?>
<!-- Generator: Adobe Illustrator 27.8.1, SVG Export Plug-In . SVG Version: 6.00 Build 0)  -->
<svg version="1.1" id="Layer_1" xmlns="http://www.w3.org/2000/svg" xmlns:xlink="http://www.w3.org/1999/xlink" x="0px" y="0px"
	 viewBox="0 0 595.3 841.9" style="enable-background:new 0 0 595.3 841.9;" xml:space="preserve">
<style type="text/css">
	.st0{clip-path:url(#SVGID_00000041290551308737795340000016950403809695544479_);fill:#5A1C3C;}
	.st1{clip-path:url(#SVGID_00000050655227099081084740000003443806650517977253_);fill:#5A1C3C;}
	.st2{clip-path:url(#SVGID_00000041271183183167219350000006758826765735803547_);fill:#5A1C3C;}
	.st3{clip-path:url(#SVGID_00000145046328739088587300000007105365019209338772_);fill:#5A1C3C;}
	.st4{fill:none;stroke:#FFFFFF;stroke-width:2.2458;}
	.st5{fill:none;stroke:#FFFFFF;stroke-width:1.3683;}
	.st6{clip-path:url(#SVGID_00000028303463469298013230000000291195294047681213_);}
	.st7{fill:#5A1C3C;}
	.st8{clip-path:url(#SVGID_00000134218460807831363480000010184134447458154143_);fill:#5A1C3C;}
	.st9{clip-path:url(#SVGID_00000067200256813712515200000003792578225297094541_);fill:#5A1C3C;}
	.st10{clip-path:url(#SVGID_00000002366320893144044020000004032498788370355383_);}
	.st11{clip-path:url(#SVGID_00000055694975609857434110000004271945858358062492_);fill:#5A1C3C;}
	.st12{clip-path:url(#SVGID_00000076592617567077586730000013452753909623979918_);}
	.st13{clip-path:url(#SVGID_00000008143001309568619040000005789697314900704955_);}
	.st14{fill:#AB1D40;}
	.st15{fill:#DE4827;}
	.st16{fill:#82CCAE;}
</style>
<g>
	<defs>
		<rect id="SVGID_00000031187587208307789410000001698930972320414140_" x="442.2" width="153.1" height="281.3"/>
	</defs>
	<clipPath id="SVGID_00000173844841688907074770000017322182242368788412_">
		<use xlink:href="#SVGID_00000031187587208307789410000001698930972320414140_"  style="overflow:visible;"/>
	</clipPath>
	<path style="clip-path:url(#SVGID_00000173844841688907074770000017322182242368788412_);fill:#5A1C3C;" d="M617.8,293.3
		c-3.4-23.2-10.8-43.6-20.6-62c0.9,0.3,1.8,0.4,2.7,0.4c1.6,0,3.2-0.4,4.7-1.2c4.5-2.6,6.1-8.4,3.5-12.9c-3.5-6.1-7.1-11.9-11-17.5
		c0.6,0.1,1.2,0.2,1.8,0.2c1.9,0,3.8-0.6,5.5-1.7c4.3-3,5.2-8.9,2.2-13.2c-16.1-22.6-33.8-41.3-49.5-57.8l-3-3.1
		c-41.1-43.3-59.1-65.7-59.1-98.1c0-11.8,1.5-22.2,4.6-31.1c1.7-4.9-0.9-10.3-5.8-12c-4.9-1.7-10.3,0.9-12,5.8
		c-0.2,0.6-0.4,1.1-0.5,1.7c-1.2-2.3-3.3-4-6-4.7c-4.2-1.1-8.5,0.9-10.5,4.5c-1.3-2.4-3.5-4.2-6.3-4.8c-5.1-1.1-10.1,2.1-11.2,7.2
		c-2.2,10.3-3.4,21.5-3.4,33.3c0,56.2,35.5,93.7,73.2,133.4l1.2,1.3c33.9,35.7,72.3,76.2,80.9,135c0.7,4.7,4.7,8.1,9.3,8.1
		c0.5,0,0.9,0,1.4-0.1C615,303.3,618.6,298.5,617.8,293.3z"/>
</g>
<g>
	<defs>
		<rect id="SVGID_00000109022771780068636650000011040148197282241707_" x="0" y="554.3" width="595.3" height="287.5"/>
	</defs>
	<clipPath id="SVGID_00000097471341201223951260000016159912932358497445_">
		<use xlink:href="#SVGID_00000109022771780068636650000011040148197282241707_"  style="overflow:visible;"/>
	</clipPath>
	<path style="clip-path:url(#SVGID_00000097471341201223951260000016159912932358497445_);fill:#5A1C3C;" d="M595.3,841.9V554.3
		c0,81.2-65.8,147-147,147H0v140.5H595.3z"/>
</g>
</svg>
